# Blender v3.1.2 OBJ File: ''
# www.blender.org
mtllib energySword.mtl
o energySword
v 13.220784 -0.375000 -1.747912
v 13.718696 0.000000 -2.634823
v 35.000000 0.000000 -0.861000
v 7.750000 0.000003 -4.160361
v 5.984736 -0.525000 -3.092170
v 3.500000 0.000003 -6.306442
v 2.887500 -0.599997 -5.031043
v 0.000000 -0.749997 -5.955577
v 0.000000 0.000003 -4.394534
v -2.887499 -0.599997 -5.031043
v -6.498709 0.000000 -2.832420
v -3.500000 0.000003 -6.306442
v 0.000000 0.000003 -7.516621
v 2.275000 0.000003 -3.755643
v 4.219474 0.000000 -2.023980
v 5.339190 -0.375000 -1.442585
v 8.494172 0.000000 -1.189860
v 4.693642 -0.000000 0.207000
v 12.722872 0.000000 -0.861000
v -3.500000 0.000003 -6.306442
v -6.498709 0.000000 -2.832420
v -2.887499 0.600003 -5.031043
v 0.000000 0.000003 -4.394534
v 0.000000 0.750003 -5.955577
v 2.275000 0.000003 -3.755643
v 2.887500 0.600003 -5.031043
v 4.219474 0.000000 -2.023980
v 5.984736 0.525000 -3.092170
v 5.339190 0.375000 -1.442585
v 8.494172 0.000000 -1.189860
v 4.693642 -0.000000 0.207000
v 0.000000 0.000003 -7.516621
v 3.500000 0.000003 -6.306442
v 7.750000 0.000003 -4.160361
v 13.220784 0.375000 -1.747912
v 12.722872 0.000000 -0.861000
v 35.000000 0.000000 -0.861000
v 13.718696 0.000000 -2.634823
v 7.750000 -0.000003 4.574361
v 13.220784 -0.375000 2.161912
v 13.718696 -0.000003 3.048824
v 5.984736 -0.525003 3.506171
v 3.500000 -0.000003 6.720442
v 2.887500 -0.600003 5.445043
v 0.000000 -0.750003 6.369578
v 0.000000 -0.000003 4.808534
v -2.887499 -0.600003 5.445043
v -6.498709 -0.000003 3.246420
v -3.500000 -0.000003 6.720442
v 0.000000 -0.000003 7.930622
v 2.275000 -0.000003 4.169643
v 4.219474 -0.000000 2.437981
v 5.339190 -0.375000 1.856585
v 8.494172 -0.000000 1.603860
v 4.693642 -0.000000 0.207000
v 12.722872 -0.000000 1.275000
v 35.000000 -0.000000 1.275000
v -2.887499 0.599997 5.445043
v -6.498709 -0.000003 3.246420
v -3.500000 -0.000003 6.720442
v 0.000000 -0.000003 4.808534
v 0.000000 0.749997 6.369578
v 2.275000 -0.000003 4.169643
v 2.887500 0.599997 5.445043
v 4.219474 -0.000000 2.437981
v 5.984736 0.524997 3.506171
v 5.339190 0.375000 1.856585
v 8.494172 -0.000000 1.603860
v 4.693642 -0.000000 0.207000
v 0.000000 -0.000003 7.930622
v 3.500000 -0.000003 6.720442
v 7.750000 -0.000003 4.574361
v 13.220784 0.375000 2.161912
v 12.722872 -0.000000 1.275000
v 35.000000 -0.000000 1.275000
v 13.718696 -0.000003 3.048824
vt 0.524065 0.320084
vt 0.511595 0.340585
vt 0.011305 0.281242
vt 0.651064 0.381467
vt 0.693563 0.357736
vt 0.749499 0.435565
vt 0.764990 0.405999
vt 0.832308 0.430174
vt 0.833593 0.393369
vt 0.901148 0.410754
vt 0.988100 0.361890
vt 0.914539 0.441328
vt 0.831023 0.466979
vt 0.780481 0.376433
vt 0.736062 0.334005
vt 0.710141 0.319375
vt 0.635964 0.310819
vt 0.726720 0.281014
vt 0.536534 0.299584
vt 0.914539 0.441328
vt 0.988100 0.361890
vt 0.901148 0.410754
vt 0.833593 0.393369
vt 0.832308 0.430174
vt 0.780481 0.376433
vt 0.764990 0.405999
vt 0.736062 0.334005
vt 0.693563 0.357736
vt 0.710141 0.319375
vt 0.635964 0.310819
vt 0.726720 0.281014
vt 0.831023 0.466979
vt 0.749499 0.435565
vt 0.651064 0.381467
vt 0.524065 0.320084
vt 0.536534 0.299584
vt 0.011305 0.281242
vt 0.511595 0.340585
vt 0.651286 0.145792
vt 0.524395 0.084462
vt 0.511936 0.104945
vt 0.693749 0.122081
vt 0.749638 0.199844
vt 0.765116 0.170303
vt 0.832376 0.194458
vt 0.833660 0.157684
vt 0.901158 0.175054
vt 0.988036 0.126231
vt 0.914537 0.205602
vt 0.831092 0.231231
vt 0.780594 0.140762
vt 0.736212 0.098370
vt 0.710313 0.083753
vt 0.636199 0.075204
vt 0.726878 0.045424
vt 0.536854 0.063978
vt 0.012070 0.045652
vt 0.901158 0.175054
vt 0.988036 0.126231
vt 0.914537 0.205602
vt 0.833660 0.157684
vt 0.832376 0.194458
vt 0.780594 0.140762
vt 0.765116 0.170303
vt 0.736212 0.098370
vt 0.693749 0.122081
vt 0.710313 0.083753
vt 0.636199 0.075204
vt 0.726878 0.045424
vt 0.831092 0.231231
vt 0.749638 0.199844
vt 0.651286 0.145792
vt 0.524395 0.084462
vt 0.536854 0.063978
vt 0.012070 0.045652
vt 0.511936 0.104945
vn 0.0273 -0.9992 0.0290
vn 0.0542 -0.9302 -0.3629
vn 0.0172 -0.9999 0.0007
vn 0.0962 -0.9465 -0.3079
vn 0.0210 -0.9992 -0.0353
vn 0.1779 -0.9230 -0.3413
vn 0.0334 -0.9991 -0.0263
vn 0.0000 -0.9973 -0.0729
vn -0.0022 -0.9062 0.4228
vn -0.0894 -0.9957 0.0253
vn -0.1200 -0.9901 0.0731
vn -0.2304 -0.9140 -0.3338
vn 0.0000 -0.9014 -0.4331
vn -0.1907 -0.9204 0.3414
vn -0.2504 -0.9577 0.1420
vn -0.1172 -0.9861 0.1175
vn 0.0018 -0.9595 0.2817
vn -0.0938 -0.9781 0.1857
vn -0.0188 -0.9246 0.3804
vn -0.2304 0.9140 -0.3338
vn -0.1200 0.9901 0.0731
vn -0.0894 0.9957 0.0253
vn -0.0148 0.9027 0.4300
vn -0.0030 0.9971 -0.0762
vn -0.1834 0.9172 0.3537
vn 0.0237 0.9994 -0.0262
vn -0.2504 0.9577 0.1420
vn 0.0241 0.9996 -0.0166
vn -0.1172 0.9861 0.1175
vn 0.0018 0.9595 0.2817
vn -0.0938 0.9781 0.1857
vn 0.0000 0.9014 -0.4331
vn 0.1670 0.9165 -0.3636
vn 0.1067 0.9455 -0.3077
vn 0.0273 0.9992 0.0290
vn -0.0188 0.9246 0.3804
vn 0.0172 0.9999 0.0007
vn 0.0542 0.9303 -0.3629
vn 0.0962 -0.9465 0.3079
vn 0.0273 -0.9992 -0.0290
vn 0.0542 -0.9303 0.3629
vn 0.0210 -0.9992 0.0353
vn 0.1779 -0.9230 0.3413
vn 0.0334 -0.9991 0.0263
vn 0.0000 -0.9973 0.0729
vn -0.0022 -0.9062 -0.4228
vn -0.0894 -0.9957 -0.0253
vn -0.1200 -0.9901 -0.0731
vn -0.2304 -0.9140 0.3338
vn 0.0000 -0.9014 0.4331
vn -0.1907 -0.9204 -0.3414
vn -0.2504 -0.9577 -0.1420
vn -0.1172 -0.9861 -0.1175
vn 0.0018 -0.9595 -0.2817
vn -0.0938 -0.9781 -0.1857
vn -0.0188 -0.9246 -0.3804
vn 0.0172 -0.9999 -0.0007
vn -0.0894 0.9957 -0.0253
vn -0.1200 0.9901 -0.0731
vn -0.2304 0.9140 0.3338
vn -0.0148 0.9027 -0.4300
vn -0.0030 0.9971 0.0762
vn -0.1834 0.9172 -0.3537
vn 0.0237 0.9994 0.0262
vn -0.2504 0.9577 -0.1420
vn 0.0241 0.9996 0.0166
vn -0.1172 0.9861 -0.1175
vn 0.0018 0.9595 -0.2817
vn -0.0938 0.9781 -0.1857
vn 0.0000 0.9014 0.4331
vn 0.1670 0.9165 0.3636
vn 0.1067 0.9455 0.3077
vn 0.0273 0.9992 -0.0290
vn -0.0188 0.9246 -0.3804
vn 0.0172 0.9999 -0.0007
vn 0.0542 0.9302 0.3629
g energySword_blade
usemtl mt_energysword_blade
s 1
f 1/1/1 2/2/2 3/3/3
f 2/2/2 1/1/1 4/4/4
f 5/5/5 4/4/4 1/1/1
f 4/4/4 5/5/5 6/6/6
f 7/7/7 6/6/6 5/5/5
f 6/6/6 7/7/7 8/8/8
f 9/9/9 8/8/8 7/7/7
f 8/8/8 9/9/9 10/10/10
f 11/11/11 10/10/10 9/9/9
f 12/12/12 10/10/10 11/11/11
f 10/10/10 12/12/12 8/8/8
f 13/13/13 8/8/8 12/12/12
f 8/8/8 13/13/13 6/6/6
f 7/7/7 14/14/14 9/9/9
f 14/14/14 7/7/7 15/15/15
f 5/5/5 15/15/15 7/7/7
f 15/15/15 5/5/5 16/16/16
f 17/17/17 16/16/16 5/5/5
f 18/18/18 16/16/16 17/17/17
f 16/16/16 18/18/18 15/15/15
f 1/1/1 17/17/17 5/5/5
f 17/17/17 1/1/1 19/19/19
f 3/3/3 19/19/19 1/1/1
f 20/20/20 21/21/21 22/22/22
f 23/23/23 22/22/22 21/21/21
f 22/22/22 23/23/23 24/24/24
f 25/25/25 24/24/24 23/23/23
f 24/24/24 25/25/25 26/26/26
f 27/27/27 26/26/26 25/25/25
f 26/26/26 27/27/27 28/28/28
f 29/29/29 28/28/28 27/27/27
f 28/28/28 29/29/29 30/30/30
f 30/30/30 29/29/29 31/31/31
f 27/27/27 31/31/31 29/29/29
f 22/22/22 24/24/24 20/20/20
f 20/20/20 24/24/24 32/32/32
f 32/32/32 24/24/24 33/33/33
f 26/26/26 33/33/33 24/24/24
f 33/33/33 26/26/26 34/34/34
f 28/28/28 34/34/34 26/26/26
f 34/34/34 28/28/28 35/35/35
f 30/30/30 35/35/35 28/28/28
f 36/36/36 35/35/35 30/30/30
f 37/37/37 35/35/35 36/36/36
f 38/38/38 35/35/35 37/37/37
f 35/35/35 38/38/38 34/34/34
f 39/39/39 40/40/40 41/41/41
f 40/40/40 39/39/39 42/42/42
f 43/43/43 42/42/42 39/39/39
f 42/42/42 43/43/43 44/44/44
f 45/45/45 44/44/44 43/43/43
f 44/44/44 45/45/45 46/46/46
f 47/47/47 46/46/46 45/45/45
f 46/46/46 47/47/47 48/48/48
f 48/48/48 47/47/47 49/49/49
f 45/45/45 49/49/49 47/47/47
f 49/49/49 45/45/45 50/50/50
f 43/43/43 50/50/50 45/45/45
f 46/46/46 51/51/51 44/44/44
f 52/52/52 44/44/44 51/51/51
f 44/44/44 52/52/52 42/42/42
f 53/53/53 42/42/42 52/52/52
f 42/42/42 53/53/53 54/54/54
f 54/54/54 53/53/53 55/55/55
f 52/52/52 55/55/55 53/53/53
f 42/42/42 54/54/54 40/40/40
f 56/56/56 40/40/40 54/54/54
f 57/57/57 40/40/40 56/56/56
f 40/40/40 57/57/57 41/41/41
f 58/58/58 59/59/59 60/60/60
f 59/59/59 58/58/58 61/61/61
f 62/62/62 61/61/61 58/58/58
f 61/61/61 62/62/62 63/63/63
f 64/64/64 63/63/63 62/62/62
f 63/63/63 64/64/64 65/65/65
f 66/66/66 65/65/65 64/64/64
f 65/65/65 66/66/66 67/67/67
f 68/68/68 67/67/67 66/66/66
f 69/69/69 67/67/67 68/68/68
f 67/67/67 69/69/69 65/65/65
f 60/60/60 62/62/62 58/58/58
f 70/70/70 62/62/62 60/60/60
f 71/71/71 62/62/62 70/70/70
f 62/62/62 71/71/71 64/64/64
f 72/72/72 64/64/64 71/71/71
f 64/64/64 72/72/72 66/66/66
f 73/73/73 66/66/66 72/72/72
f 66/66/66 73/73/73 68/68/68
f 68/68/68 73/73/73 74/74/74
f 74/74/74 73/73/73 75/75/75
f 75/75/75 73/73/73 76/76/76
f 72/72/72 76/76/76 73/73/73
v 0.000000 0.935000 2.146123
v -1.099819 0.000000 -2.281889
v -1.099819 -0.000000 2.146123
v 0.000000 0.935000 -2.281890
v 1.100000 -0.000000 2.146124
v 0.000000 -0.935467 -2.281889
v 1.100000 0.000000 -2.281889
v 0.000000 -0.935467 2.146124
v 1.100000 -0.000000 2.146124
v 0.000000 0.935000 -2.281890
v 0.000000 0.935000 2.146123
v 1.100000 0.000000 -2.281889
v 0.000000 -0.935467 -2.281889
v -1.099819 -0.000000 2.146123
v -1.099819 0.000000 -2.281889
v 0.000000 -0.935467 2.146124
v 0.000000 0.750003 -4.668201
v 0.875000 1.515545 -3.418201
v 1.750000 0.000000 -3.418201
v -0.875000 1.515545 -3.418201
v -1.750000 0.000000 -3.418201
v 0.875000 -1.515545 -3.418201
v 0.000000 -0.749997 -4.668201
v -0.875000 -1.515544 -3.418201
v -0.000212 0.749997 5.082000
v -0.875212 1.515541 3.832004
v -1.750212 -0.000003 3.832001
v 0.874788 1.515541 3.832004
v 1.749787 -0.000004 3.832001
v -0.875212 -1.515548 3.832000
v -0.000212 -0.750003 5.082000
v 0.874788 -1.515548 3.832000
v 0.000000 0.000000 -0.600000
v -0.875212 1.515541 3.832004
v 0.874788 1.515541 3.832004
v -1.750212 -0.000003 3.832001
v -0.875212 -1.515548 3.832000
v 0.874788 -1.515548 3.832000
v 1.749787 -0.000004 3.832001
v 0.874788 1.515541 3.832004
v 0.875000 1.515545 -3.418201
v -0.875000 1.515545 -3.418201
v 0.000000 0.000000 -0.600000
v -1.750000 0.000000 -3.418201
v -0.875000 -1.515544 -3.418201
v 0.875000 -1.515545 -3.418201
v 1.750000 0.000000 -3.418201
v 0.875000 1.515545 -3.418201
v -0.000212 -0.750003 5.082000
v 1.749787 -0.000004 3.832001
v -1.750212 -0.000003 3.832001
v -0.000212 0.749997 5.082000
v -1.750212 -0.000003 3.832001
v 1.749787 -0.000004 3.832001
v 0.000000 0.750003 -4.668201
v 1.750000 0.000000 -3.418201
v -1.750000 0.000000 -3.418201
v 1.750000 0.000000 -3.418201
v 0.000000 -0.749997 -4.668201
v -1.750000 0.000000 -3.418201
vt 0.205179 0.726026
vt 0.400145 0.514528
vt 0.400145 0.726026
vt 0.205179 0.514528
vt 0.790048 0.726026
vt 0.595111 0.514528
vt 0.790048 0.514528
vt 0.595111 0.726026
vt 0.790048 0.726026
vt 0.984986 0.514528
vt 0.984986 0.726026
vt 0.790048 0.514528
vt 0.595111 0.514528
vt 0.400145 0.726026
vt 0.400145 0.514528
vt 0.595111 0.726026
vt 0.059601 0.767022
vt 0.020258 0.811989
vt 0.098143 0.856956
vt 0.020258 0.722055
vt 0.098143 0.677088
vt 0.176029 0.811989
vt 0.136687 0.767022
vt 0.176029 0.722055
vt 0.059601 0.767011
vt 0.020258 0.722044
vt 0.098144 0.677077
vt 0.020258 0.811978
vt 0.098144 0.856945
vt 0.176029 0.722044
vt 0.136687 0.767011
vt 0.176029 0.811978
vt 0.655345 0.836514
vt 0.330432 0.993506
vt 0.200464 0.993506
vt 0.460393 0.993506
vt 0.590354 0.993506
vt 0.720322 0.993506
vt 0.850297 0.993506
vt 0.980271 0.993506
vt 0.200451 0.736686
vt 0.330419 0.736686
vt 0.655345 0.836514
vt 0.460393 0.736686
vt 0.590367 0.736686
vt 0.720335 0.736686
vt 0.850297 0.736686
vt 0.980258 0.736686
vt 0.554957 0.056615
vt 0.632745 0.107515
vt 0.464450 0.077841
vt 0.542239 0.128741
vt 0.464450 0.077841
vt 0.632745 0.107515
vt 0.542249 0.128743
vt 0.632756 0.107517
vt 0.464460 0.077842
vt 0.632756 0.107517
vt 0.554967 0.056616
vt 0.464460 0.077842
vn -0.6477 0.7619 0.0000
vn 0.6478 -0.7618 -0.0000
vn 0.6476 0.7619 0.0000
vn -0.6479 -0.7617 -0.0000
vn 0.0000 0.6692 -0.7431
vn 0.4068 0.6242 -0.6670
vn 0.6884 -0.0000 -0.7253
vn -0.4068 0.6242 -0.6670
vn -0.6884 -0.0000 -0.7253
vn 0.4068 -0.6242 -0.6670
vn 0.0000 -0.6692 -0.7431
vn -0.4068 -0.6242 -0.6670
vn 0.0000 0.6692 0.7431
vn -0.4068 0.6242 0.6670
vn -0.6884 -0.0000 0.7253
vn 0.4068 0.6242 0.6670
vn 0.6884 -0.0000 0.7253
vn -0.4068 -0.6242 0.6670
vn -0.0000 -0.6692 0.7431
vn 0.4068 -0.6242 0.6670
vn 0.0000 0.0000 -1.0000
vn -0.4651 0.8055 -0.3673
vn 0.0000 0.9462 -0.3236
vn -0.9301 0.0000 -0.3673
vn -0.4651 -0.8055 -0.3673
vn 0.4651 -0.8055 -0.3672
vn 0.9301 0.0000 -0.3672
vn 0.8195 0.4731 -0.3235
vn 0.0000 0.8807 0.4736
vn -0.4248 0.7357 0.5275
vn -0.0000 -0.0000 1.0000
vn -0.8495 -0.0000 0.5275
vn -0.4248 -0.7357 0.5275
vn 0.4248 -0.7357 0.5275
vn 0.8495 -0.0000 0.5275
vn 0.7627 0.4404 0.4736
vn 0.0000 0.8575 0.5145
vn -0.0000 -0.8575 0.5145
vn 0.0000 -0.8575 -0.5145
vn 0.0000 0.8575 -0.5145
g energySword_handle
usemtl mt_energysword_handle
s 1
f 77/77/77 78/78/77 79/79/77
f 78/78/77 77/77/77 80/80/77
f 81/81/78 82/82/78 83/83/78
f 82/82/78 81/81/78 84/84/78
f 85/85/79 86/86/79 87/87/79
f 86/86/79 85/85/79 88/88/79
f 89/89/80 90/90/80 91/91/80
f 90/90/80 89/89/80 92/92/80
f 93/93/81 94/94/82 95/95/83
f 94/94/82 93/93/81 96/96/84
f 97/97/85 96/96/84 93/93/81
f 95/95/83 98/98/86 99/99/87
f 100/100/88 99/99/87 98/98/86
f 99/99/87 100/100/88 97/97/85
f 101/101/89 102/102/90 103/103/91
f 102/102/90 101/101/89 104/104/92
f 105/105/93 104/104/92 101/101/89
f 103/103/91 106/106/94 107/107/95
f 108/108/96 107/107/95 106/106/94
f 107/107/95 108/108/96 105/105/93
f 109/109/97 110/110/98 111/111/99
f 110/110/98 109/109/97 112/112/100
f 112/112/100 109/109/97 113/113/101
f 113/113/101 109/109/97 114/114/102
f 114/114/102 109/109/97 115/115/103
f 116/116/104 115/115/103 109/109/97
f 117/117/105 118/118/106 119/119/107
f 120/120/108 119/119/107 118/118/106
f 121/121/109 119/119/107 120/120/108
f 122/122/110 119/119/107 121/121/109
f 123/123/111 119/119/107 122/122/110
f 119/119/107 123/123/111 124/124/112
