# Blender v2.71 (sub 0) OBJ File: 'yoshi_falls.blend'
# www.blender.org

mtllib box.mtl
o mesh_box

v 1.000000 -1.000000 -1.000000
v 1.000000 -1.000000 1.000000
v -1.000000 -1.000000 1.000000
v -1.000000 -1.000000 -1.000000
v 1.000000 1.000000 -1.00000
v 1.000000 1.000000 1.000000
v -1.000000 1.000000 1.000000
v -1.000000 1.000000 -1.000000

vt 0.000000 0.000000
vt 0.000000 1.000000
vt 1.000000 0.000000
vt 1.000000 1.000000

vn 0.000000 -1.000000 0.000000
vn 0.000000 1.000000 0.000000
vn 1.000000 0.000000 0.000000
vn -0.000000 0.000000 1.000000
vn -1.000000 -0.000000 -0.000000
vn 0.000000 0.000000 -1.000000

g submesh_box
usemtl mt_box
s off

f 2/3/1 3/4/1 4/2/1
f 8/3/2 7/4/2 6/2/2
f 5/3/3 6/4/3 2/2/3
f 6/3/4 7/4/4 3/2/4
f 3/3/5 7/4/5 8/2/5
f 1/3/6 4/4/6 8/2/6
f 1/1/1 2/2/1 4/3/1
f 5/1/2 8/2/2 6/3/2
f 1/1/3 5/2/3 2/3/3
f 2/1/4 6/2/4 3/3/4
f 4/1/5 3/2/5 8/3/5
f 5/1/6 1/2/6 8/3/6